<svg width="32" height="32" viewBox="0 0 32 32" fill="none" xmlns="http://www.w3.org/2000/svg">
<g clip-path="url(#clip0_8_707)">
<mask id="mask0_8_707" style="mask-type:alpha" maskUnits="userSpaceOnUse" x="0" y="0" width="32" height="32">
<path fill-rule="evenodd" clip-rule="evenodd" d="M0 16C0 7.16347 7.16347 0 16 0C24.8365 0 32 7.16347 32 16C32 24.8365 24.8365 32 16 32C7.16347 32 0 24.8365 0 16Z" fill="white"/>
</mask>
<g mask="url(#mask0_8_707)">
<path fill-rule="evenodd" clip-rule="evenodd" d="M0 16C0 7.16347 7.16347 0 16 0C24.8365 0 32 7.16347 32 16C32 24.8365 24.8365 32 16 32C7.16347 32 0 24.8365 0 16Z" fill="#3C3A3A"/>
<path fill-rule="evenodd" clip-rule="evenodd" d="M16.0008 7.4668C13.6833 7.4668 13.3924 7.47693 12.4822 7.51837C11.5737 7.55997 10.9537 7.70376 10.411 7.9148C9.84982 8.13277 9.37371 8.42434 8.89942 8.8988C8.42475 9.37314 8.13318 9.8492 7.91451 10.4103C7.70294 10.953 7.55894 11.5733 7.51803 12.4814C7.47734 13.3917 7.46667 13.6827 7.46667 16.0002C7.46667 18.3177 7.47697 18.6077 7.51825 19.5179C7.56001 20.4264 7.70385 21.0465 7.91467 21.5891C8.13281 22.1503 8.42438 22.6264 8.89889 23.1007C9.37302 23.5754 9.84907 23.8677 10.41 24.0856C10.9529 24.2967 11.5732 24.4405 12.4815 24.4821C13.3917 24.5235 13.6824 24.5336 15.9997 24.5336C18.3174 24.5336 18.6074 24.5235 19.5177 24.4821C20.4261 24.4405 21.0469 24.2967 21.5898 24.0856C22.1509 23.8677 22.6263 23.5754 23.1004 23.1007C23.5751 22.6264 23.8667 22.1503 24.0853 21.5893C24.2951 21.0465 24.4391 20.4262 24.4818 19.5181C24.5227 18.6079 24.5333 18.3177 24.5333 16.0002C24.5333 13.6827 24.5227 13.3918 24.4818 12.4816C24.4391 11.5731 24.2951 10.953 24.0853 10.4105C23.8667 9.8492 23.5751 9.37314 23.1004 8.8988C22.6258 8.42413 22.1511 8.13256 21.5893 7.9148C21.0453 7.70376 20.4249 7.55997 19.5164 7.51837C18.6062 7.47693 18.3164 7.4668 15.9981 7.4668H16.0008ZM15.2353 9.00461C15.4625 9.00424 15.7161 9.00461 16.0009 9.00461C18.2793 9.00461 18.5493 9.01277 19.4491 9.05368C20.2811 9.0917 20.7326 9.23074 21.0334 9.34754C21.4316 9.50221 21.7156 9.68712 22.0141 9.98578C22.3128 10.2845 22.4976 10.5689 22.6526 10.9671C22.7695 11.2675 22.9086 11.7191 22.9465 12.5511C22.9874 13.4507 22.9963 13.7209 22.9963 15.9983C22.9963 18.2757 22.9874 18.5458 22.9465 19.4454C22.9085 20.2774 22.7695 20.729 22.6526 21.0295C22.498 21.4277 22.3128 21.7112 22.0141 22.0097C21.7154 22.3084 21.4318 22.4933 21.0334 22.648C20.733 22.7653 20.2811 22.904 19.4491 22.942C18.5495 22.9829 18.2793 22.9918 16.0009 22.9918C13.7222 22.9918 13.4522 22.9829 12.5526 22.942C11.7206 22.9036 11.2691 22.7646 10.9681 22.6478C10.5699 22.4931 10.2854 22.3082 9.98673 22.0095C9.68806 21.7109 9.50315 21.4271 9.34817 21.0287C9.23137 20.7283 9.09217 20.2767 9.0543 19.4447C9.0134 18.5451 9.00523 18.2749 9.00523 15.9961C9.00523 13.7174 9.0134 13.4486 9.0543 12.549C9.09233 11.717 9.23137 11.2654 9.34817 10.9646C9.50283 10.5664 9.68806 10.2819 9.98673 9.98328C10.2854 9.68461 10.5699 9.4997 10.9681 9.34472C11.2689 9.22738 11.7206 9.08872 12.5526 9.05048C13.3398 9.0149 13.6449 9.00424 15.2353 9.00248V9.00461ZM20.5559 10.4215C19.9906 10.4215 19.5319 10.8797 19.5319 11.4451C19.5319 12.0105 19.9906 12.4692 20.5559 12.4692C21.1212 12.4692 21.58 12.0105 21.58 11.4451C21.58 10.8798 21.1212 10.4215 20.5559 10.4215ZM16.0008 11.6179C13.5806 11.6179 11.6185 13.5801 11.6185 16.0002C11.6185 18.4203 13.5806 20.3816 16.0008 20.3816C18.4209 20.3816 20.3823 18.4203 20.3823 16.0002C20.3823 13.5801 18.4209 11.6179 16.0008 11.6179ZM16.0009 13.1557C17.5717 13.1557 18.8453 14.4291 18.8453 16.0002C18.8453 17.5711 17.5717 18.8447 16.0009 18.8447C14.4298 18.8447 13.1564 17.5711 13.1564 16.0002C13.1564 14.4291 14.4298 13.1557 16.0009 13.1557Z" fill="white"/>
</g>
</g>
<defs>
<clipPath id="clip0_8_707">
<rect width="32" height="32" fill="white"/>
</clipPath>
</defs>
</svg>
