<svg width="32" height="32" viewBox="0 0 32 32" fill="none" xmlns="http://www.w3.org/2000/svg">
<g clip-path="url(#clip0_8_704)">
<path fill-rule="evenodd" clip-rule="evenodd" d="M0 16C0 7.16347 7.16347 0 16 0C24.8365 0 32 7.16347 32 16C32 24.8365 24.8365 32 16 32C7.16347 32 0 24.8365 0 16Z" fill="#55ACEE"/>
<path fill-rule="evenodd" clip-rule="evenodd" d="M15.5208 13.0051L15.5544 13.5587L14.9948 13.4909C12.9579 13.2311 11.1785 12.3498 9.66757 10.8697L8.92891 10.1353L8.73867 10.6776C8.33573 11.8866 8.59317 13.1633 9.43253 14.022C9.88021 14.4965 9.77947 14.5643 9.00725 14.2819C8.73867 14.1915 8.50363 14.1237 8.48123 14.1576C8.40288 14.2366 8.67152 15.2649 8.88416 15.6716C9.17515 16.2365 9.76827 16.7902 10.4174 17.1178L10.9658 17.3777L10.3167 17.389C9.68992 17.389 9.66757 17.4003 9.73472 17.6376C9.95856 18.372 10.8427 19.1516 11.8276 19.4906L12.5214 19.7278L11.9171 20.0894C11.0218 20.6091 9.96976 20.9029 8.91771 20.9255C8.41408 20.9368 8 20.982 8 21.0159C8 21.1289 9.36539 21.7616 10.16 22.0102C12.5438 22.7446 15.3753 22.4282 17.5017 21.1741C19.0126 20.2814 20.5235 18.5076 21.2285 16.7902C21.6091 15.875 21.9896 14.2028 21.9896 13.4006C21.9896 12.8808 22.0231 12.813 22.6499 12.1916C23.0192 11.83 23.3662 11.4346 23.4333 11.3216C23.5452 11.1069 23.534 11.1069 22.9633 11.299C22.0119 11.638 21.8777 11.5928 22.3477 11.0843C22.6947 10.7228 23.1087 10.0675 23.1087 9.87537C23.1087 9.8415 22.9409 9.89798 22.7506 9.99969C22.5492 10.1126 22.1015 10.2821 21.7658 10.3838L21.1614 10.5759L20.613 10.203C20.3108 9.99969 19.8855 9.77371 19.6617 9.70587C19.0909 9.54769 18.218 9.5703 17.7032 9.7511C16.3042 10.2595 15.4201 11.5702 15.5208 13.0051Z" fill="white"/>
</g>
<defs>
<clipPath id="clip0_8_704">
<rect width="32" height="32" fill="white"/>
</clipPath>
</defs>
</svg>
